<svg xmlns="http://www.w3.org/2000/svg" xmlns:xlink="http://www.w3.org/1999/xlink" width="500" zoomAndPan="magnify" viewBox="0 0 375 374.999991" height="500" preserveAspectRatio="xMidYMid meet" version="1.0"><defs><g/></defs><path fill="#ffde59" d="M 187.5 0 C 83.945312 0 0 83.945312 0 187.5 C 0 291.054688 83.945312 375 187.5 375 C 291.054688 375 375 291.054688 375 187.5 C 375 83.945312 291.054688 0 187.5 0 " fill-opacity="1" fill-rule="nonzero"/><g fill="#000000" fill-opacity="1"><g transform="translate(58.904521, 295.39166)"><g><path d="M 104.96875 2.6875 C 76.601562 2.6875 54.378906 -4.800781 38.296875 -19.78125 C 22.222656 -34.769531 14.1875 -55.742188 14.1875 -82.703125 C 14.1875 -106.335938 19.125 -127.328125 29 -145.671875 C 38.882812 -164.023438 52.878906 -178.140625 70.984375 -188.015625 C 89.097656 -197.898438 109.976562 -202.84375 133.625 -202.84375 C 155.1875 -202.84375 173.222656 -197.972656 187.734375 -188.234375 C 202.253906 -178.492188 212.019531 -164.878906 217.03125 -147.390625 L 177.03125 -136.328125 C 174.289062 -147.003906 168.992188 -155.273438 161.140625 -161.140625 C 153.296875 -167.003906 143.367188 -169.9375 131.359375 -169.9375 C 116.316406 -169.9375 103.117188 -166.390625 91.765625 -159.296875 C 80.421875 -152.203125 71.722656 -142.128906 65.671875 -129.078125 C 59.617188 -116.035156 56.59375 -101.003906 56.59375 -83.984375 C 56.59375 -67.148438 61.109375 -53.929688 70.140625 -44.328125 C 79.171875 -34.734375 91.914062 -29.9375 108.375 -29.9375 C 118.59375 -29.9375 128.523438 -31.164062 138.171875 -33.625 C 147.816406 -36.082031 156.039062 -39.390625 162.84375 -43.546875 L 169.375 -75.890625 L 120.859375 -75.890625 L 126.390625 -105.390625 L 213.484375 -105.390625 L 198.59375 -24.828125 C 183.84375 -14.703125 169.085938 -7.582031 154.328125 -3.46875 C 139.578125 0.632812 123.125 2.6875 104.96875 2.6875 Z M 104.96875 2.6875 "/></g></g></g><g fill="#000000" fill-opacity="1"><g transform="translate(272.836187, 106.36678)"><g><path d="M 11.953125 -20.796875 L 11.953125 0 L 8.796875 0 L 8.796875 -20.796875 L 0.765625 -20.796875 L 0.765625 -23.390625 L 19.984375 -23.390625 L 19.984375 -20.796875 Z M 11.953125 -20.796875 "/></g></g></g><g fill="#000000" fill-opacity="1"><g transform="translate(293.601853, 106.36678)"><g><path d="M 22.671875 0 L 22.671875 -15.609375 C 22.671875 -17.335938 22.722656 -19 22.828125 -20.59375 C 22.285156 -18.601562 21.796875 -17.050781 21.359375 -15.9375 L 15.328125 0 L 13.09375 0 L 6.96875 -15.9375 L 6.046875 -18.765625 L 5.5 -20.59375 L 5.546875 -18.75 L 5.609375 -15.609375 L 5.609375 0 L 2.796875 0 L 2.796875 -23.390625 L 6.953125 -23.390625 L 13.1875 -7.171875 C 13.40625 -6.515625 13.613281 -5.8125 13.8125 -5.0625 C 14.019531 -4.320312 14.160156 -3.785156 14.234375 -3.453125 C 14.316406 -3.898438 14.5 -4.570312 14.78125 -5.46875 C 15.0625 -6.375 15.253906 -6.941406 15.359375 -7.171875 L 21.46875 -23.390625 L 25.53125 -23.390625 L 25.53125 0 Z M 22.671875 0 "/></g></g></g></svg>